# xmcd CD database file
#
# Track frame offsets:
#	150
#	15849
#	24369
#	37625
#	43722
#	58706
#	73457
#	82910
#	93392
#	102185
#
# Disc length: 1499 seconds
#
# Revision: 0
# Processed by: cddbd v1.5.2PL0 Copyright (c) Steve Scherf et al.
# Submitted via: CDex 1.70beta2
#
DISCID=6d05d90a
DTITLE=CL - Country Legends - D3
DYEAR=1900
DGENRE=Country
TTITLE0=Tears - Don Williams
TTITLE1=Bimbo - Sonny James
TTITLE2=The Girl Who Waits On Tables - Freddy Fender
TTITLE3=Have I Told You Lately - Jim Reeves
TTITLE4=Everything Is Beautiful - Narvel FDelts
TTITLE5=I Can't Stop Loving You - Don Gibson
TTITLE6=I Saw the Light - Bill Monroe
TTITLE7=Just Call Me Lonesome - Jim Reeves
TTITLE8=Love's Gonna Live Here - Waylon Jennings
TTITLE9=Here Comes My Baby Back Again - Faron Young
EXTD=
EXTT0=
EXTT1=
EXTT2=
EXTT3=
EXTT4=
EXTT5=
EXTT6=
EXTT7=
EXTT8=
EXTT9=
PLAYORDER=
